<mxfile host="65bd71144e">
    <diagram id="7Jq983hjgR1p0DryHYps" name="Page-1">
        <mxGraphModel dx="967" dy="447" grid="1" gridSize="10" guides="1" tooltips="1" connect="1" arrows="1" fold="1" page="1" pageScale="1" pageWidth="850" pageHeight="1100" math="0" shadow="0">
            <root>
                <mxCell id="0"/>
                <mxCell id="1" parent="0"/>
                <mxCell id="7" value="" style="edgeStyle=none;html=1;fontSize=17;" parent="1" source="2" target="6" edge="1">
                    <mxGeometry relative="1" as="geometry"/>
                </mxCell>
                <mxCell id="2" value="&lt;font style=&quot;font-size: 17px;&quot;&gt;Material App&lt;/font&gt;" style="rounded=0;whiteSpace=wrap;html=1;strokeWidth=0;fillColor=#a20025;fontColor=#ffffff;strokeColor=#6F0000;" parent="1" vertex="1">
                    <mxGeometry x="340" y="10" width="120" height="60" as="geometry"/>
                </mxCell>
                <mxCell id="9" value="" style="edgeStyle=none;html=1;fontSize=17;" parent="1" source="6" target="8" edge="1">
                    <mxGeometry relative="1" as="geometry"/>
                </mxCell>
                <mxCell id="15" value="" style="edgeStyle=none;html=1;fontSize=17;" parent="1" source="6" target="14" edge="1">
                    <mxGeometry relative="1" as="geometry"/>
                </mxCell>
                <mxCell id="29" value="" style="edgeStyle=none;html=1;fontSize=17;" parent="1" source="6" target="28" edge="1">
                    <mxGeometry relative="1" as="geometry"/>
                </mxCell>
                <mxCell id="35" value="" style="edgeStyle=none;html=1;fontSize=14;" parent="1" source="6" target="34" edge="1">
                    <mxGeometry relative="1" as="geometry"/>
                </mxCell>
                <mxCell id="6" value="&lt;font style=&quot;font-size: 17px;&quot;&gt;TodoScreen&lt;/font&gt;" style="rounded=0;whiteSpace=wrap;html=1;fillColor=#60a917;fontColor=#ffffff;strokeColor=#2D7600;strokeWidth=0;" parent="1" vertex="1">
                    <mxGeometry x="340" y="90" width="120" height="60" as="geometry"/>
                </mxCell>
                <mxCell id="11" value="" style="edgeStyle=none;html=1;fontSize=17;" parent="1" source="8" target="10" edge="1">
                    <mxGeometry relative="1" as="geometry"/>
                </mxCell>
                <mxCell id="13" value="" style="edgeStyle=none;html=1;fontSize=17;" parent="1" source="8" target="12" edge="1">
                    <mxGeometry relative="1" as="geometry"/>
                </mxCell>
                <mxCell id="8" value="&lt;font style=&quot;font-size: 17px;&quot;&gt;AddTask&lt;/font&gt;" style="rounded=0;whiteSpace=wrap;html=1;fillColor=#1ba1e2;fontColor=#ffffff;strokeColor=#006EAF;strokeWidth=0;" parent="1" vertex="1">
                    <mxGeometry x="110" y="90" width="120" height="60" as="geometry"/>
                </mxCell>
                <mxCell id="10" value="&lt;span style=&quot;font-size: 17px;&quot;&gt;TextField&lt;/span&gt;" style="rounded=0;whiteSpace=wrap;html=1;fillColor=#1ba1e2;fontColor=#ffffff;strokeColor=#006EAF;strokeWidth=0;" parent="1" vertex="1">
                    <mxGeometry x="40" y="180" width="120" height="60" as="geometry"/>
                </mxCell>
                <mxCell id="12" value="&lt;font style=&quot;font-size: 17px;&quot;&gt;TextButton&lt;/font&gt;" style="rounded=0;whiteSpace=wrap;html=1;fillColor=#1ba1e2;fontColor=#ffffff;strokeColor=#006EAF;strokeWidth=0;" parent="1" vertex="1">
                    <mxGeometry x="180" y="180" width="120" height="60" as="geometry"/>
                </mxCell>
                <mxCell id="17" value="" style="edgeStyle=none;html=1;fontSize=17;" parent="1" source="14" target="16" edge="1">
                    <mxGeometry relative="1" as="geometry"/>
                </mxCell>
                <mxCell id="14" value="&lt;font style=&quot;font-size: 17px;&quot;&gt;TaskList&lt;/font&gt;" style="rounded=0;whiteSpace=wrap;html=1;fillColor=#1ba1e2;fontColor=#ffffff;strokeColor=#006EAF;strokeWidth=0;" parent="1" vertex="1">
                    <mxGeometry x="670" y="90" width="120" height="60" as="geometry"/>
                </mxCell>
                <mxCell id="19" value="" style="edgeStyle=none;html=1;fontSize=17;" parent="1" source="16" target="18" edge="1">
                    <mxGeometry relative="1" as="geometry"/>
                </mxCell>
                <mxCell id="20" value="" style="edgeStyle=none;html=1;fontSize=17;" parent="1" source="16" target="18" edge="1">
                    <mxGeometry relative="1" as="geometry"/>
                </mxCell>
                <mxCell id="21" value="" style="edgeStyle=none;html=1;fontSize=17;" parent="1" source="16" target="18" edge="1">
                    <mxGeometry relative="1" as="geometry"/>
                </mxCell>
                <mxCell id="22" value="" style="edgeStyle=none;html=1;fontSize=17;" parent="1" source="16" target="18" edge="1">
                    <mxGeometry relative="1" as="geometry"/>
                </mxCell>
                <mxCell id="23" value="" style="edgeStyle=none;html=1;fontSize=17;" parent="1" source="16" target="18" edge="1">
                    <mxGeometry relative="1" as="geometry"/>
                </mxCell>
                <mxCell id="25" value="" style="edgeStyle=none;html=1;fontSize=17;" parent="1" source="16" target="24" edge="1">
                    <mxGeometry relative="1" as="geometry"/>
                </mxCell>
                <mxCell id="16" value="&lt;font style=&quot;font-size: 17px;&quot;&gt;SingleTask&lt;/font&gt;" style="rounded=0;whiteSpace=wrap;html=1;fillColor=#60a917;fontColor=#ffffff;strokeColor=#2D7600;strokeWidth=0;" parent="1" vertex="1">
                    <mxGeometry x="670" y="180" width="120" height="60" as="geometry"/>
                </mxCell>
                <mxCell id="18" value="&lt;font style=&quot;font-size: 17px;&quot;&gt;Checkbox&lt;/font&gt;" style="rounded=0;whiteSpace=wrap;html=1;fillColor=#1ba1e2;fontColor=#ffffff;strokeColor=#006EAF;strokeWidth=0;" parent="1" vertex="1">
                    <mxGeometry x="570" y="340" width="120" height="60" as="geometry"/>
                </mxCell>
                <mxCell id="24" value="&lt;font style=&quot;font-size: 17px;&quot;&gt;Text&lt;/font&gt;" style="rounded=0;whiteSpace=wrap;html=1;fillColor=#1ba1e2;fontColor=#ffffff;strokeColor=#006EAF;strokeWidth=0;" parent="1" vertex="1">
                    <mxGeometry x="710" y="340" width="120" height="60" as="geometry"/>
                </mxCell>
                <mxCell id="28" value="&lt;font style=&quot;font-size: 17px;&quot;&gt;TasksInfo&lt;/font&gt;" style="rounded=0;whiteSpace=wrap;html=1;fillColor=#1ba1e2;fontColor=#ffffff;strokeColor=#006EAF;strokeWidth=0;" parent="1" vertex="1">
                    <mxGeometry x="480" y="180" width="120" height="60" as="geometry"/>
                </mxCell>
                <mxCell id="30" value="&lt;font style=&quot;font-size: 14px;&quot;&gt;StatefullWidget&lt;/font&gt;" style="rounded=0;whiteSpace=wrap;html=1;fillColor=#60a917;fontColor=#ffffff;strokeColor=#2D7600;strokeWidth=0;" parent="1" vertex="1">
                    <mxGeometry width="100" height="30" as="geometry"/>
                </mxCell>
                <mxCell id="31" value="&lt;font style=&quot;font-size: 14px;&quot;&gt;StatelessWidget&lt;/font&gt;" style="rounded=0;whiteSpace=wrap;html=1;fillColor=#1ba1e2;fontColor=#ffffff;strokeColor=#006EAF;strokeWidth=0;" parent="1" vertex="1">
                    <mxGeometry y="30" width="100" height="30" as="geometry"/>
                </mxCell>
                <mxCell id="34" value="&lt;font style=&quot;font-size: 17px;&quot;&gt;TodoAppBar&lt;/font&gt;" style="rounded=0;whiteSpace=wrap;html=1;fillColor=#1ba1e2;fontColor=#ffffff;strokeColor=#006EAF;strokeWidth=0;" parent="1" vertex="1">
                    <mxGeometry x="340" y="180" width="120" height="60" as="geometry"/>
                </mxCell>
            </root>
        </mxGraphModel>
    </diagram>
</mxfile>